<svg id="Layer_1" data-name="Layer 1" xmlns="http://www.w3.org/2000/svg" viewBox="0 0 1920 670.88" height="35.000019"><defs><style>.cls-1{fill:#fff;}</style></defs><path class="cls-1" d="M466.68,177.37H200.82a23.23,23.23,0,0,0-23.18,23.14V466.43a23.23,23.23,0,0,0,23.18,23.13H466.68a23.2,23.2,0,0,0,23.15-23.13V200.51A23.21,23.21,0,0,0,466.68,177.37Zm-29.29,86v55a2.34,2.34,0,0,0-.47-.05H416.07a83.12,83.12,0,0,0-13.31-32.35l14.68-14.69a2.25,2.25,0,0,0,0-3.18l-18.3-18.3a2.25,2.25,0,0,0-3.18,0L381.3,264.41A83.15,83.15,0,0,0,348.93,251V230.27a2.32,2.32,0,0,0,0-.46h54.9A33.62,33.62,0,0,1,437.39,263.36ZM263.74,229.81h54.85a2.32,2.32,0,0,0,0,.46V251a83.15,83.15,0,0,0-32.37,13.41l-14.66-14.66a2.26,2.26,0,0,0-3.19,0L250,268.05a2.25,2.25,0,0,0,0,3.18l14.68,14.69a83.27,83.27,0,0,0-13.31,32.35H230.56a3,3,0,0,0-.43,0V263.36A33.68,33.68,0,0,1,263.74,229.81ZM230.13,403.48V348.62a3,3,0,0,0,.43,0h20.9a83.19,83.19,0,0,0,13.39,32.22L250,395.69a2.26,2.26,0,0,0,0,3.19l18.29,18.3a2.27,2.27,0,0,0,3.19,0l14.83-14.83a83.29,83.29,0,0,0,32.2,13.28v21a1.75,1.75,0,0,0,.05.46H263.74A33.74,33.74,0,0,1,230.13,403.48Zm173.66,33.64H348.88a2.31,2.31,0,0,0,.05-.46v-21a83.29,83.29,0,0,0,32.2-13.28L396,417.18a2.25,2.25,0,0,0,3.18,0l18.3-18.3a2.26,2.26,0,0,0,0-3.19l-14.81-14.81A83.19,83.19,0,0,0,416,348.66h20.9a2.34,2.34,0,0,0,.47-.05v54.87A33.69,33.69,0,0,1,403.79,437.12Z"/><path class="cls-1" d="M593.83,309.74H637l45.59,138.17h.7l43.85-138.17h41.07L703.81,489.67H659.25Z"/><path class="cls-1" d="M933.5,449.65q0,7.31,1.92,10.44t7.48,3.13h4.18a25.56,25.56,0,0,0,5.56-.69V490c-1.38.46-3.19,1-5.39,1.57s-4.47,1.1-6.78,1.56a70.27,70.27,0,0,1-7,1.05q-3.48.35-5.91.35-12.2,0-20.19-4.88T897,472.62a70.18,70.18,0,0,1-29.06,16.71,114.46,114.46,0,0,1-33.24,5.22,81.58,81.58,0,0,1-23.31-3.31,61.08,61.08,0,0,1-19.67-9.74,46.73,46.73,0,0,1-13.58-16.36q-5-9.92-5-23.15,0-16.69,6.09-27.14a45.2,45.2,0,0,1,16-16.36A72.43,72.43,0,0,1,817.43,390q12.36-2.61,24.89-4a203.89,203.89,0,0,1,20.53-3,94.77,94.77,0,0,0,17.23-3,26.33,26.33,0,0,0,11.83-6.43q4.35-4.35,4.36-13.06,0-7.65-3.66-12.53a24.6,24.6,0,0,0-9.05-7.48,39.13,39.13,0,0,0-12-3.48,96.17,96.17,0,0,0-12.52-.87q-16.71,0-27.5,7t-12.18,21.58H779.67q1.05-17.4,8.35-28.89a57.83,57.83,0,0,1,18.62-18.44,76.29,76.29,0,0,1,25.58-9.75,152.88,152.88,0,0,1,29.24-2.78,123.48,123.48,0,0,1,26.1,2.78,74.43,74.43,0,0,1,23.15,9.05,50.16,50.16,0,0,1,16.53,16.18q6.27,9.93,6.26,24.19Zm-39.67-50.12q-9.06,5.93-22.28,7.14t-26.45,3.65a86.22,86.22,0,0,0-12.18,3,36.73,36.73,0,0,0-10.44,5.22,23.17,23.17,0,0,0-7.14,8.7,29.78,29.78,0,0,0-2.6,13.05,16.65,16.65,0,0,0,3.82,11.14,28,28,0,0,0,9.23,7.14,42.77,42.77,0,0,0,11.83,3.65,73,73,0,0,0,11.66,1,64.13,64.13,0,0,0,14.27-1.74A47.69,47.69,0,0,0,878,455.57,38.07,38.07,0,0,0,889.3,445q4.53-6.43,4.53-15.83Z"/><path class="cls-1" d="M966.92,309.74h37.24v34.8h.69a40.17,40.17,0,0,1,6.79-14.27,66.26,66.26,0,0,1,12.18-12.7,61.36,61.36,0,0,1,15.83-9.22,47.42,47.42,0,0,1,17.75-3.48,86.78,86.78,0,0,1,9.58.35l5.39.69V344.2c-2.78-.47-5.63-.87-8.53-1.22a71.14,71.14,0,0,0-8.53-.53,45.55,45.55,0,0,0-19,4,43.57,43.57,0,0,0-15.49,11.83,57.91,57.91,0,0,0-10.44,19.32,83.65,83.65,0,0,0-3.83,26.45v85.61H966.92Z"/><path class="cls-1" d="M1091.16,241.18H1104V348.72h.69a56.29,56.29,0,0,1,10.82-18.27,67.72,67.72,0,0,1,16-13.23,72.37,72.37,0,0,1,19.54-8,89.09,89.09,0,0,1,21.63-2.61q19.89,0,34.36,7a69,69,0,0,1,24.25,19.14,81.19,81.19,0,0,1,14.48,28.36,124.71,124.71,0,0,1,4.71,35q0,32-8.73,51.34T1220.9,477q-12.21,10.27-25.46,13.57t-22.68,3.31q-17.8,0-30.18-5.57a74.36,74.36,0,0,1-20.41-13A64.67,64.67,0,0,1,1110,460.44q-4.18-7.31-5.23-10.79h-.68v40h-12.89Zm81.62,241.19q17.79,0,30-7.66a61.83,61.83,0,0,0,19.89-20,89.94,89.94,0,0,0,11.16-27.85,139.43,139.43,0,0,0,3.49-30.8,103.58,103.58,0,0,0-4-28.88,76.78,76.78,0,0,0-12.21-24.89,62.73,62.73,0,0,0-20.24-17.57q-12-6.61-28.09-6.62-17.46,0-30.36,5.92a57.55,57.55,0,0,0-21.29,16.36,70.94,70.94,0,0,0-12.56,24.71,109.33,109.33,0,0,0-4.19,31,133.94,133.94,0,0,0,3.84,32,84,84,0,0,0,12,27.67,62.46,62.46,0,0,0,21.11,19.32Q1154.29,482.37,1172.78,482.37Z"/><path class="cls-1" d="M1388.73,454.17H1388a55.39,55.39,0,0,1-9,15.15,64.47,64.47,0,0,1-14.45,12.7,71.71,71.71,0,0,1-19.32,8.7,84.55,84.55,0,0,1-23.66,3.13q-28.55,0-44.2-12.35t-15.66-38.12q0-15.64,6.26-25.57a47.43,47.43,0,0,1,15.84-15.67A68,68,0,0,1,1305,394a209.38,209.38,0,0,1,22.45-3.48l20.53-1.74q14.27-1,22.45-3.3t12.35-6.27a17.82,17.82,0,0,0,5.23-10.26,98.64,98.64,0,0,0,1-15.67,33,33,0,0,0-2.79-13.57,30.56,30.56,0,0,0-8.7-11.14,43.15,43.15,0,0,0-15.31-7.65q-9.4-2.79-23-2.79-24,0-38.81,11.84t-16.18,35.84h-13.23q1.4-29.56,19-44.37t50-14.79q32.37,0,47.16,12.7T1402,352.55V456.61q0,3.84.18,7.66a25.66,25.66,0,0,0,1.22,7,10.38,10.38,0,0,0,3.48,5q2.43,1.92,7,1.92a64,64,0,0,0,9.74-1v11.13a41.63,41.63,0,0,1-10.79,1.39q-8,0-12.7-2.08a16.76,16.76,0,0,1-7.13-5.57,20.54,20.54,0,0,1-3.31-8.18,56.44,56.44,0,0,1-.87-10.27Zm0-66.12q-4.87,5.93-14.79,8a185.22,185.22,0,0,1-22.1,3.14l-22.28,2.08q-9.75,1.05-19.49,3a57,57,0,0,0-17.57,6.44A36,36,0,0,0,1279.8,423q-4.89,7.83-4.88,20.35,0,19.85,12.53,29.41t34.46,9.58q22.62,0,35.85-8.18t20.18-18.8q7-10.61,8.88-20.53t1.91-13.4Z"/><path class="cls-1" d="M1438.85,430.16a54.68,54.68,0,0,0,5.57,22.1,52.62,52.62,0,0,0,31,26.63,71.12,71.12,0,0,0,22.62,3.48,120.23,120.23,0,0,0,18.62-1.57,64.89,64.89,0,0,0,18.45-5.74,38.34,38.34,0,0,0,14.09-11.66q5.57-7.48,5.57-19,0-15-9-22.62T1522.9,410a230.33,230.33,0,0,0-29.59-6.79,153.46,153.46,0,0,1-29.58-7.83,60.13,60.13,0,0,1-22.79-14.79q-9.06-9.57-9-28,0-13.23,5.91-22.1a44,44,0,0,1,15.14-14.1,68.71,68.71,0,0,1,20.71-7.48,118.45,118.45,0,0,1,23-2.26,104.42,104.42,0,0,1,26.1,3.13,56.49,56.49,0,0,1,21.06,10.09,48.2,48.2,0,0,1,13.92,17.75q5,10.8,5,26.11h-13.23q0-12.18-4-20.89a36.52,36.52,0,0,0-11.14-14.09,48.37,48.37,0,0,0-16.88-8,80.43,80.43,0,0,0-20.88-2.61,98.32,98.32,0,0,0-18.27,1.74,53.1,53.1,0,0,0-16.53,5.92,36.92,36.92,0,0,0-12,10.79,27,27,0,0,0-4.7,16q0,10.79,5.22,17.4a37.36,37.36,0,0,0,13.75,10.62,94.44,94.44,0,0,0,19.14,6.44q10.62,2.43,21.41,4.87,13.21,2.43,24.88,5.74a70.38,70.38,0,0,1,20.19,9.05,41.21,41.21,0,0,1,13.4,14.79q4.86,9.06,4.87,23,0,14.61-6.61,24a51.08,51.08,0,0,1-16.71,15.14,70.9,70.9,0,0,1-22.45,8,134,134,0,0,1-24.19,2.26,96.57,96.57,0,0,1-28.36-4,64.48,64.48,0,0,1-22.8-12.18,58,58,0,0,1-15.31-20q-5.58-11.82-5.92-27.49Z"/><path class="cls-1" d="M1593.37,402v2.09a105.44,105.44,0,0,0,4.19,29.93,76.42,76.42,0,0,0,12.38,25.06,58.9,58.9,0,0,0,20.59,17.05q12.39,6.27,28.79,6.27,26.88,0,42.58-14.1t21.63-39.15h13.23q-5.92,31.32-25.58,48t-52,16.7q-19.85,0-34.63-7.13a70.48,70.48,0,0,1-24.71-19.49A82.49,82.49,0,0,1,1585,438a130.52,130.52,0,0,1-4.87-36.37,127.29,127.29,0,0,1,5-36,90.49,90.49,0,0,1,15.14-30.28,75,75,0,0,1,25.23-20.88q15.15-7.83,35.68-7.83,18.78,0,33.23,7a69.58,69.58,0,0,1,24.19,19,84.36,84.36,0,0,1,14.79,27.84,111.29,111.29,0,0,1,5,33.93c0,1.17-.06,2.5-.18,4s-.17,2.74-.17,3.66Zm131.56-11.49a107.1,107.1,0,0,0-4.89-27.66,68.52,68.52,0,0,0-12.38-23,61.58,61.58,0,0,0-19.9-15.84,58.37,58.37,0,0,0-26.69-5.92q-16.07,0-28.27,6.09a64,64,0,0,0-20.59,16,71.41,71.41,0,0,0-12.91,23.15,108.29,108.29,0,0,0-5.58,27.14Z"/></svg>